<svg xmlns="http://www.w3.org/2000/svg" viewBox="0 0 47.1 49.21"><defs><style>.cls-1{fill:#036;}</style></defs><title>applications</title><g id="Layer_2" data-name="Layer 2"><g id="Layer_1-2" data-name="Layer 1"><path class="cls-1" d="M35.58,3.62a10.68,10.68,0,0,1,1.24.43A10.07,10.07,0,0,1,38,4.63l2-2h0a.76.76,0,0,1,1.08,0h0L44.48,6h0a.76.76,0,0,1,0,1.09h0l-2,2A10.67,10.67,0,0,1,43,10.27a10.89,10.89,0,0,1,.44,1.25h2.85a.77.77,0,0,1,.77.77v4.76a.77.77,0,0,1-.77.77H43.48A10.26,10.26,0,0,1,43,19.07a10.81,10.81,0,0,1-.57,1.19l2,2h0a.76.76,0,0,1,0,1.09h0l-3.37,3.37h0a.76.76,0,0,1-1.08,0h0l-2-2a11.84,11.84,0,0,1-1.19.57,10.68,10.68,0,0,1-1.24.43v2.85a.77.77,0,0,1-.77.77H30a.77.77,0,0,1-.77-.77V25.72A10.68,10.68,0,0,1,28,25.29a11.84,11.84,0,0,1-1.19-.57l-2,2h0a.76.76,0,0,1-1.08,0h0l-3.36-3.37h0a.77.77,0,0,1,0-1.09h0l2-2a10.81,10.81,0,0,1-.57-1.19,10.26,10.26,0,0,1-.44-1.25H18.52a.77.77,0,0,1-.77-.77V12.29a.77.77,0,0,1,.77-.77h2.85a10.89,10.89,0,0,1,.44-1.25,10.67,10.67,0,0,1,.57-1.18l-2-2h0a.77.77,0,0,1,0-1.09h0l3.37-3.37h0a.76.76,0,0,1,1.08,0h0l2,2a11,11,0,0,1,2.43-1V.77A.77.77,0,0,1,30,0h4.77a.77.77,0,0,1,.77.77V3.62Zm.65,1.85A10.13,10.13,0,0,0,34.7,5,.76.76,0,0,1,34,4.21V1.54H30.81V4.2a.77.77,0,0,1-.6.76L30,4.21l.17.75a9.51,9.51,0,0,0-1.59.51,10.4,10.4,0,0,0-1.45.74.78.78,0,0,1-1-.07h0l-1.89-1.9L22,6.53l1.88,1.88a.77.77,0,0,1,.12,1h0a11,11,0,0,0-.77,1.49,10.22,10.22,0,0,0-.49,1.54.78.78,0,0,1-.76.66H19.29v3.23H22a.77.77,0,0,1,.77.59l-.75.17.74-.16a10.91,10.91,0,0,0,.51,1.59A9.76,9.76,0,0,0,24,19.92a.76.76,0,0,1-.07,1h0L22,22.82l2.28,2.28,1.88-1.88a.77.77,0,0,1,1-.12h0a8.84,8.84,0,0,0,1.5.77,9.12,9.12,0,0,0,1.53.5.76.76,0,0,1,.66.76v2.68H34V25.15a.77.77,0,0,1,.6-.77l.17.75-.17-.75a8.67,8.67,0,0,0,1.59-.51,9.42,9.42,0,0,0,1.45-.74.76.76,0,0,1,1,.08h0l1.89,1.89,2.28-2.28L41,20.94a.78.78,0,0,1-.12-1h0a11,11,0,0,0,.77-1.49,10.22,10.22,0,0,0,.49-1.54.77.77,0,0,1,.76-.65h2.68V13.06H42.9a.79.79,0,0,1-.77-.6l.75-.17-.74.17a11,11,0,0,0-.51-1.6,10.28,10.28,0,0,0-.74-1.44.76.76,0,0,1,.07-1h0l1.89-1.89L40.57,4.24,38.69,6.12a.77.77,0,0,1-1,.12h0A9.63,9.63,0,0,0,36.23,5.47Z"/><path class="cls-1" d="M32.43,9.19a5.48,5.48,0,1,1-3.88,1.6,5.46,5.46,0,0,1,3.88-1.6Zm2.79,2.69a3.95,3.95,0,1,0-2.79,6.74,4,4,0,0,0,2.79-6.74Z"/><path class="cls-1" d="M13.77,29.56a7.06,7.06,0,0,1,.81.29c.27.11.53.24.79.37l1.41-1.41h0a.77.77,0,0,1,1.09,0h0l2.53,2.53h0a.77.77,0,0,1,0,1.09h0L19,33.84c.13.26.26.52.37.79a7.06,7.06,0,0,1,.29.81h2a.78.78,0,0,1,.77.77v3.58a.77.77,0,0,1-.77.77h-2a8,8,0,0,1-.29.82c-.11.26-.24.53-.37.78l1.41,1.41h0a.77.77,0,0,1,0,1.09h0l-2.53,2.52h0a.77.77,0,0,1-1.09,0h0l-1.41-1.41a8.08,8.08,0,0,1-.79.37,7.06,7.06,0,0,1-.81.29v2a.77.77,0,0,1-.77.77H9.42a.76.76,0,0,1-.77-.77v-2a8.42,8.42,0,0,1-1.6-.66L5.64,47.19h0a.77.77,0,0,1-1.09,0h0L2,44.66H2a.77.77,0,0,1,0-1.09H2l1.41-1.41a8.42,8.42,0,0,1-.66-1.6h-2A.76.76,0,0,1,0,39.79V36.21a.77.77,0,0,1,.77-.77h2a7.06,7.06,0,0,1,.29-.81,8.08,8.08,0,0,1,.37-.79L2,32.43H2a.77.77,0,0,1,0-1.09H2l2.53-2.53h0a.77.77,0,0,1,1.09,0h0l1.41,1.41c.25-.13.52-.26.78-.37a8,8,0,0,1,.82-.29v-2a.77.77,0,0,1,.77-.77H13a.78.78,0,0,1,.77.77v2ZM14,31.27a7.56,7.56,0,0,0-1.11-.36.77.77,0,0,1-.66-.76V28.33h-2v1.8a.77.77,0,0,1-.6.77l-.17-.75.17.75a6.91,6.91,0,0,0-1.17.37,7.82,7.82,0,0,0-1,.53.77.77,0,0,1-1-.07h0L5.09,30.44,3.65,31.89l1.27,1.27a.76.76,0,0,1,.12,1H5a6.32,6.32,0,0,0-.56,1.1,7.19,7.19,0,0,0-.36,1.11.78.78,0,0,1-.77.65H1.54v2h1.8a.77.77,0,0,1,.76.6l-.75.17.75-.17a7,7,0,0,0,.38,1.17,7.25,7.25,0,0,0,.53,1,.76.76,0,0,1-.08,1h0L3.65,44.12l1.44,1.44,1.28-1.27a.76.76,0,0,1,1-.12h0a7,7,0,0,0,1.09.57,7.19,7.19,0,0,0,1.11.36.77.77,0,0,1,.66.76v1.81h2v-1.8a.76.76,0,0,1,.6-.76l.17.75-.17-.75A8,8,0,0,0,14,44.74a9.29,9.29,0,0,0,1-.54.76.76,0,0,1,1,.08h0l1.29,1.28,1.44-1.44L17.5,42.85a.77.77,0,0,1-.12-1h0a8,8,0,0,0,.56-1.09,7.19,7.19,0,0,0,.36-1.11.78.78,0,0,1,.76-.66h1.82V37h-1.8a.77.77,0,0,1-.77-.6l.75-.17-.75.17a6.53,6.53,0,0,0-.37-1.16,7.37,7.37,0,0,0-.53-1,.77.77,0,0,1,.07-1h0l1.29-1.28-1.44-1.45-1.28,1.28a.77.77,0,0,1-1,.11h0A8,8,0,0,0,14,31.27Z"/><path class="cls-1" d="M11.21,33.69A4.3,4.3,0,1,1,8.16,35a4.3,4.3,0,0,1,3.05-1.26Zm2,2.35A2.78,2.78,0,1,0,14,38,2.78,2.78,0,0,0,13.17,36Z"/></g></g></svg>