<svg xmlns="http://www.w3.org/2000/svg" viewBox="0 0 47.67 38.66"><defs><style>.cls-1{fill:#036;}</style></defs><title>Customsoftware</title><g id="Layer_2" data-name="Layer 2"><g id="Layer_1-2" data-name="Layer 1"><path class="cls-1" d="M24.57,12.63,26,17.92l4.83-2.73h0a.74.74,0,0,1,1,.28.75.75,0,0,1,0,.78L29.15,21l5.34,1.49h0a.74.74,0,0,1,.51.91.72.72,0,0,1-.57.53l-5.29,1.47,2.73,4.83h0a.74.74,0,0,1-1.06,1L26,28.54l-1.49,5.35h0a.74.74,0,0,1-.91.52.78.78,0,0,1-.54-.58l-1.46-5.29-4.83,2.74h0a.76.76,0,0,1-1-.28.77.77,0,0,1,0-.79l2.71-4.78L13.18,24h0a.75.75,0,0,1,.05-1.45L18.53,21,15.79,16.2h0a.74.74,0,0,1,.28-1,.77.77,0,0,1,.79,0l4.78,2.7,1.48-5.34h0a.74.74,0,0,1,.92-.52.73.73,0,0,1,.53.57Zm.29,6.61-1-3.69-1,3.63a.83.83,0,0,1-.08.22.76.76,0,0,1-1,.29h0L18.4,17.8l1.86,3.28a1.12,1.12,0,0,1,.1.22.74.74,0,0,1-.52.91h0l-3.69,1,3.63,1a.7.7,0,0,1,.23.08.76.76,0,0,1,.28,1h0L18.4,28.67l3.28-1.86a.88.88,0,0,1,.22-.1.75.75,0,0,1,.92.52h0l1,3.69,1-3.63a.73.73,0,0,1,.09-.23.75.75,0,0,1,1-.28h0l3.33,1.89-1.86-3.28a1.47,1.47,0,0,1-.1-.22.75.75,0,0,1,.52-.92h0l3.69-1-3.63-1a.6.6,0,0,1-.22-.09.74.74,0,0,1-.29-1h0l1.88-3.33L26,19.66a1.12,1.12,0,0,1-.22.1.75.75,0,0,1-.91-.52Z"/><path class="cls-1" d="M.74,0H46.93a.74.74,0,0,1,.74.75V37.91a.75.75,0,0,1-.74.75H.74A.75.75,0,0,1,0,37.91V.75A.74.74,0,0,1,.74,0ZM46.18,1.49H1.49V37.17H46.18Z"/><path class="cls-1" d="M.74,7.75a.75.75,0,0,0,0,1.49H46.93a.75.75,0,0,0,0-1.49Z"/><path class="cls-1" d="M19.48,3.87a.76.76,0,0,0-.75.75.75.75,0,0,0,.75.74h2.85a.74.74,0,0,0,.75-.74.75.75,0,0,0-.75-.75Z"/><path class="cls-1" d="M12.52,3.87a.75.75,0,0,0-.74.75.74.74,0,0,0,.74.74h2.86a.74.74,0,0,0,.74-.74.75.75,0,0,0-.74-.75Z"/><path class="cls-1" d="M5.57,3.87a.76.76,0,0,0-.75.75.75.75,0,0,0,.75.74H8.42a.74.74,0,0,0,.75-.74.75.75,0,0,0-.75-.75Z"/></g></g></svg>