<svg xmlns="http://www.w3.org/2000/svg" viewBox="0 0 49.21 40.17"><defs><style>.cls-1{fill:#036;}</style></defs><title>Payroll</title><g id="Layer_2" data-name="Layer 2"><g id="Layer_1-2" data-name="Layer 1"><path class="cls-1" d="M.77,0H48.44a.76.76,0,0,1,.77.77V34.36a.76.76,0,0,1-.77.77H.77A.76.76,0,0,1,0,34.36V.77A.76.76,0,0,1,.77,0Zm46.9,1.54H1.54V33.59H47.67Z"/><path class="cls-1" d="M20.13,33.59h9a.77.77,0,0,1,.77.77v5a.76.76,0,0,1-.77.77H20.13a.76.76,0,0,1-.77-.77v-5a.77.77,0,0,1,.77-.77Zm8.19,1.54H20.89v3.5h7.43Z"/><path class="cls-1" d="M12.71,38.63a.77.77,0,1,0,0,1.54H36.5a.77.77,0,0,0,0-1.54Z"/><path class="cls-1" d="M32.88,7.47h8.63a.78.78,0,0,1,.77.77V34.32a.78.78,0,0,1-.77.77H32.88a.77.77,0,0,1-.77-.77V8.24a.77.77,0,0,1,.77-.77ZM40.74,9H33.65V33.55h7.09Z"/><path class="cls-1" d="M20.29,14h8.63a.77.77,0,0,1,.77.77V34.32a.77.77,0,0,1-.77.77H20.29a.77.77,0,0,1-.77-.77V14.78a.77.77,0,0,1,.77-.77Zm7.86,1.54H21.06v18h7.09Z"/><path class="cls-1" d="M7.7,20.51h8.63a.76.76,0,0,1,.77.77v13a.77.77,0,0,1-.77.77H7.7a.78.78,0,0,1-.77-.77v-13a.77.77,0,0,1,.77-.77Zm7.86,1.54H8.47v11.5h7.09Z"/></g></g></svg>