<svg xmlns="http://www.w3.org/2000/svg" viewBox="0 0 46.16 49.21"><defs><style>.cls-1{fill:#036;}</style></defs><title>payment</title><g id="Layer_2" data-name="Layer 2"><g id="Layer_1-2" data-name="Layer 1"><path class="cls-1" d="M7,21.57h32.2a.77.77,0,0,1,.77.77V45a.77.77,0,0,1-.77.77H7A.77.77,0,0,1,6.21,45V22.34A.77.77,0,0,1,7,21.57Zm31.44,1.54H7.75V44.27H38.42Z"/><path class="cls-1" d="M20.05,44.27h6.06a.77.77,0,0,1,.77.77v3.4a.77.77,0,0,1-.77.77H20.05a.76.76,0,0,1-.76-.77V45a.76.76,0,0,1,.76-.77Zm5.29,1.54H20.82v1.86h4.52Z"/><path class="cls-1" d="M15,47.67a.77.77,0,0,0,0,1.54H31.12a.77.77,0,1,0,0-1.54Z"/><path class="cls-1" d="M5.65,21.58A.77.77,0,1,0,6,20.1,6.08,6.08,0,1,1,9.19,8.36a.77.77,0,0,0,.4-1.49A7.61,7.61,0,1,0,5.65,21.58Z"/><path class="cls-1" d="M8.62,7.62a.77.77,0,0,0,1.54,0,6.08,6.08,0,1,1,12.15,0,.77.77,0,0,0,1.54,0,7.62,7.62,0,1,0-15.23,0Z"/><path class="cls-1" d="M40.12,20.1a.77.77,0,1,0,.39,1.49,7.62,7.62,0,0,0,5.39-9.33,7.62,7.62,0,0,0-9.32-5.38A.77.77,0,1,0,37,8.36,6.08,6.08,0,1,1,40.12,20.1Z"/><path class="cls-1" d="M36,7.62a.77.77,0,0,0,1.53,0,7.62,7.62,0,0,0-15.23,0,.77.77,0,0,0,1.54,0A6.08,6.08,0,0,1,36,7.62Z"/></g></g></svg>